#!OML:ASF E:/inclinewalkrobotboard/Project1/Captureday1/Session1/subject1.ASF
:FULLY-SPECIFIED
:DEGREES
51
root 0 0 0 -8.286541585650793 -20.7646848649102 6.736703464872794
lowerback 7.440155304974018 -1.039098575700799 -3.268295613256913
upperback 3.271898658283674 -1.5802356535164928 -0.12413789287490373
thorax -0.6231037550232608 -0.8233360097153875 1.868840798762201
lowerneck -2.2608831134196463 1.5644195812983717 -5.487821422845386
upperneck 21.08411607371478 1.5984902688697775 3.0128201417640588
head 6.7521750563606435 0.6288542860653861 2.0594606346282998
rclavicle 6.025252714971985E-16 5.565101138380439E-16
rhumerus 15.53004414126415 31.03809431369014 -73.61410960459247
rradius 107.7997005430278
rwrist -23.06826899040405
rhand -40.568569301960274 -24.656345330782333
rfingers 7.125019999999948
rthumb -13.472273648839687 -54.07707080870333
lclavicle -1.024346582703077E-15 3.060782441964747E-17
lhumerus -12.042918249799836 -2.30001990427348 72.33538263581137
lradius 37.68361220524859
lwrist -15.036591848235897
lhand -11.344701828271901 22.87247011029943
lfingers 7.092534853282317
lthumb 14.418773976667142 58.66279706106041
rfemur -35.06869911309516 8.686467868427146 5.315673533589605
rtibia 53.013836212249274
rfoot -6.072362454155952 -7.726208457891387
rtoes -7.707989758655457
lfemur -24.35520316895661 0.14008319179967077 -10.84333878803021
ltibia 51.326482307254985
lfoot -7.780179972602175 0.972064666413476
ltoes -9.050226246185717
52
root 0 0 0 -8.390420969017558 -22.81958929078069 7.06394452111395
lowerback 7.774386776663737 -0.9671774562558031 -3.345672877228209
upperback 3.5277482057468883 -1.5108580359418664 -0.23921656387980877
thorax -0.538997059104033 -0.7917076271331458 1.781170430586829
lowerneck -1.613394035574216 1.6135084282787733 -5.601519227125756
upperneck 20.190880210234656 1.6530689462267358 3.32116584662826
head 6.377005861368168 0.647438873717892 2.1998828511960635
rclavicle 5.882924262425347E-16 5.580925180769161E-16
rhumerus 15.597789859696398 30.943477532780285 -73.55587544787446
rradius 107.68160265924271
rwrist -22.96652069422926
rhand -40.54488705744656 -24.608394569651704
rfingers 7.125019999999948
rthumb -13.448690476221786 -54.032998962919535
lclavicle -1.4385156259854442E-15 2.0797696474684293E-16
lhumerus -16.035893465478797 -4.440930575637392 75.30950058819778
lradius 36.30157798824258
lwrist -17.886209761187914
lhand -9.359495008237579 22.41780495782784
lfingers 7.090508903821135
lthumb 16.3292285480131 58.93643910207844
rfemur -36.083410647355834 8.06505075645297 5.008092582136811
rtibia 54.166097458633054
rfoot -5.6825773963882975 -8.042831064017435
rtoes -7.548012530490901
lfemur -25.58611649367237 1.367378359456386 -10.875386100511536
ltibia 54.2907770765952
lfoot -8.374062047935109 0.40177898310225313
ltoes -9.862520508395136
53
root 0 0 0 -8.458379993175287 -24.907296361948674 7.3647561047520815
lowerback 8.137165003363489 -0.8882758495053744 -3.4139753394289207
upperback 3.7895342849805482 -1.434069962758832 -0.35521434540542723
thorax -0.4651447483579072 -0.756102941375431 1.6862320361198342
lowerneck -0.9628984229780282 1.6351924916230716 -5.729519997550097
upperneck 19.20007177208134 1.6749076091940878 3.6656478709411835
head 5.973403125732366 0.6499496686471398 2.351323423761103
rclavicle 5.688192395016495E-16 5.60858471278908E-16
rhumerus 15.676512586024197 30.81082988486038 -73.48096521225767
rradius 107.521115165222
rwrist -22.831317181691716
rhand -40.51198670333217 -24.538267327122973
rfingers 7.125019999999949
rthumb -13.416081198505944 -53.96712893355175
lclavicle -1.8261355931447634E-15 3.7417312535414673E-16
lhumerus -19.15283504499073 -6.350314991349295 77.73078412488968
lradius 35.61905917652365
lwrist -19.874518011107956
lhand -7.8087555311717205 22.14833380705857
lfingers 7.089502641441972
lthumb 17.825451060774597 59.14928382632377
rfemur -36.44667435187874 7.780626538474793 4.924588731913223
rtibia 54.513641929519025
rfoot -5.7205035850159245 -8.409615034290699
rtoes -7.491012970899233
lfemur -25.903213488269763 2.208459951603818 -11.052628119744547
ltibia 55.82917889916921
lfoot -9.233430076656958 0.4128304549047508
ltoes -10.279385887897615
54
root 0 0 0 -8.521070602531035 -27.68411707102774 7.675120031380943
lowerback 8.614417894401223 -0.7757728301396414 -3.5047046156587838
upperback 4.125244936832573 -1.3248418902720334 -0.5160814244682479
thorax -0.37802671841432267 -0.7043496620592973 1.5527800159731482
lowerneck -0.10514588282660497 1.5864505529268205 -5.952652031194875
upperneck 17.712047304231405 1.60284059453233 4.23058708371833
head 5.392178554720354 0.6051966786658185 2.586598650556538
rclavicle 5.370589869242087E-16 5.628338842260608E-16
rhumerus 15.712989724060126 30.620391316849737 -73.39784009425033
rradius 107.18064143047535
rwrist -22.56532698281736
rhand -40.414355488031845 -24.38407049910896
rfingers 7.1250199999999495
rthumb -13.32051155148409 -53.818518478187
lclavicle -2.2930052996435617E-15 5.741496112327382E-16
lhumerus -22.56867023567348 -8.82824315786101 80.54489663052088
lradius 35.49557592173327
lwrist -21.667614887847954
lhand -6.112687600044509 21.98670909974566
lfingers 7.089132219804879
lthumb 19.468112236658477 59.372020279639536
rfemur -35.84621071407797 7.9748252591417526 5.177308179332734
rtibia 53.61465838073673
rfoot -6.46397864073998 -8.975625245760101
rtoes -7.5816415890552395
lfemur -25.089562887561108 2.842486599334136 -11.4971526513914
ltibia 56.01779257317537
lfoot -10.768572295348346 1.2120138165502574
ltoes -10.313440399317795
